<svg xmlns="http://www.w3.org/2000/svg" width="920" height="280" viewBox="0 0 920 280" role="img" aria-label="Slovensky skauting gold logo">
  <g transform="translate(40, 30) scale(0.24)" fill="none" stroke="#f3b026" stroke-width="230" stroke-linecap="round" stroke-linejoin="round">
    <g transform="translate(0,928) scale(0.1,-0.1)">
<path d="M4760 9058 c-81 -23 -454 -379 -590 -563 -41 -55 -108 -140 -149
-190 -41 -49 -90 -114 -109 -145 -19 -30 -60 -93 -91 -140 -96 -142 -301 -524
-331 -616 -7 -21 -25 -61 -41 -89 -15 -27 -32 -74 -38 -103 -6 -29 -25 -79
-41 -111 -17 -32 -35 -87 -41 -121 -5 -34 -24 -89 -40 -121 -25 -47 -32 -77
-39 -152 -6 -76 -14 -105 -41 -158 -33 -64 -33 -64 -39 -249 l-6 -185 -34 -65
-35 -65 -5 -260 c-5 -282 -8 -293 -62 -316 -45 -18 -92 -4 -184 56 -47 30
-117 71 -157 91 -39 19 -76 39 -82 43 -5 5 -35 16 -65 26 -30 10 -82 31 -115
48 -56 29 -69 31 -210 38 -130 5 -160 10 -223 34 l-73 28 -82 -28 c-69 -24
-104 -30 -222 -35 -131 -6 -144 -8 -200 -37 -33 -17 -80 -36 -104 -43 -54 -14
-257 -123 -366 -195 -222 -147 -517 -536 -576 -758 -6 -23 -25 -67 -42 -97
l-31 -54 -7 -222 c-4 -122 -4 -320 0 -440 l7 -219 37 -74 c20 -41 37 -82 37
-91 0 -146 368 -623 592 -767 40 -25 106 -72 146 -104 122 -98 164 -91 299 51
113 118 178 167 251 189 32 10 81 31 108 47 73 43 222 43 304 0 30 -16 81 -37
113 -47 125 -38 316 -230 347 -349 7 -24 26 -72 43 -105 47 -89 47 -222 0
-310 -17 -33 -37 -80 -43 -105 -7 -25 -25 -69 -42 -98 -35 -63 -48 -157 -28
-216 29 -90 347 -310 485 -335 32 -6 86 -26 120 -44 93 -50 278 -49 375 2 148
78 311 53 370 -57 17 -33 55 -89 83 -124 28 -35 81 -106 117 -159 36 -52 91
-129 123 -170 32 -40 82 -109 110 -151 246 -366 318 -418 577 -418 223 0 289
34 409 211 35 52 94 132 131 179 37 47 84 112 105 145 21 33 68 98 105 145 37
47 91 121 120 165 185 276 305 334 490 235 96 -52 281 -53 375 -3 33 18 85 37
114 43 30 5 66 16 80 24 126 65 170 92 224 134 34 26 92 69 129 95 129 91 139
147 49 277 -84 122 -122 560 -59 677 70 127 250 293 338 312 28 6 79 26 113
43 89 47 223 48 307 4 30 -16 81 -37 112 -46 99 -31 202 -103 263 -185 111
-150 143 -153 328 -30 152 102 453 390 522 500 81 129 144 244 155 286 7 24
25 70 42 103 23 45 32 80 38 148 7 69 16 103 42 156 l33 67 0 190 0 190 -33
64 c-28 52 -35 81 -43 158 -7 76 -15 105 -38 146 -16 29 -34 72 -41 97 -11 43
-38 93 -139 260 -66 108 -378 420 -476 474 -38 21 -113 63 -165 92 -52 28
-115 58 -140 64 -25 7 -72 26 -104 43 -57 29 -68 31 -211 38 -121 5 -159 10
-198 28 -62 27 -122 27 -189 -1 -42 -17 -84 -22 -204 -28 -143 -6 -153 -8
-205 -37 -30 -17 -75 -35 -100 -42 -66 -15 -253 -115 -323 -172 -93 -75 -180
-84 -237 -23 l-24 26 -5 356 -5 357 -35 65 c-33 62 -34 69 -40 205 -6 132 -8
143 -39 204 -24 48 -35 84 -41 146 -6 62 -16 98 -40 143 -17 32 -35 84 -40
115 -5 30 -22 81 -38 114 -17 32 -35 79 -42 103 -6 25 -24 68 -40 95 -15 28
-31 61 -35 75 -9 32 -111 244 -140 290 -12 19 -40 67 -62 105 -114 196 -174
290 -257 400 -50 67 -111 150 -136 185 -54 77 -548 577 -605 613 -47 30 -107
40 -155 25z m117 -455 c75 -35 442 -431 503 -543 22 -39 57 -92 78 -118 53
-63 128 -182 157 -249 14 -30 46 -83 71 -116 60 -81 151 -261 168 -337 8 -33
25 -79 39 -103 13 -23 32 -67 42 -97 10 -30 30 -80 45 -110 19 -38 30 -79 35
-133 5 -63 14 -93 43 -145 33 -62 36 -75 42 -182 6 -105 9 -120 41 -179 l34
-65 3 -207 3 -207 -31 -73 c-42 -94 -40 -213 5 -317 26 -63 26 -66 23 -255
l-3 -192 -33 -69 c-19 -40 -37 -99 -43 -140 -25 -179 -88 -169 -349 57 -51 44
-129 86 -210 112 -30 9 -79 31 -109 48 -42 23 -72 32 -137 38 -61 5 -102 16
-161 42 -135 61 -193 72 -260 54 -39 -11 -98 -15 -183 -15 -115 1 -132 -2
-215 -30 -49 -17 -128 -38 -174 -46 -46 -8 -102 -26 -125 -40 -23 -13 -68 -31
-100 -39 -32 -9 -68 -24 -79 -34 -12 -10 -43 -36 -68 -58 -100 -88 -297 -215
-333 -215 -67 0 -84 37 -92 202 -6 124 -9 139 -42 213 -50 112 -56 208 -18
290 32 71 32 92 1 146 -31 54 -32 115 -5 186 19 51 19 55 3 100 -12 34 -18 79
-18 149 l0 101 40 59 40 59 5 171 c5 163 6 172 31 210 34 51 37 61 49 177 11
108 37 182 102 292 30 51 45 90 55 145 8 50 22 88 41 115 30 43 205 393 217
435 14 47 44 97 90 151 26 30 62 84 81 121 20 41 66 101 117 156 46 49 97 114
114 144 17 30 55 76 85 104 30 27 77 81 106 120 94 130 179 165 279 117z
m-2828 -3179 c52 -29 86 -39 164 -50 62 -9 116 -23 148 -39 27 -14 77 -33 112
-41 109 -28 212 -103 397 -291 l166 -168 47 -115 c26 -63 61 -140 76 -170 16
-31 34 -86 40 -124 7 -46 20 -86 40 -117 88 -142 -8 -206 -188 -124 -66 29
-92 35 -172 39 -60 4 -113 13 -146 25 l-51 20 -61 -20 -61 -21 -61 21 -61 20
-51 -20 c-33 -12 -86 -21 -146 -25 -79 -4 -107 -10 -170 -38 -42 -19 -103 -37
-136 -41 -85 -9 -229 -80 -304 -149 -33 -30 -78 -64 -101 -76 -23 -12 -69 -48
-103 -82 -34 -33 -91 -84 -126 -112 -57 -44 -69 -61 -106 -141 -23 -49 -63
-115 -89 -145 -26 -30 -60 -78 -75 -106 -69 -122 -177 -111 -227 23 -10 27
-34 73 -54 103 -75 114 -120 220 -130 307 -6 56 -18 98 -37 135 -43 84 -42
265 4 358 22 46 35 89 41 148 8 65 16 92 39 124 15 23 60 108 98 189 122 257
249 387 495 505 74 36 165 80 201 99 50 27 89 38 165 48 79 12 112 22 164 51
93 51 166 51 259 0z m5772 20 c30 -9 72 -25 94 -36 22 -12 75 -25 119 -30 75
-8 86 -13 170 -69 50 -33 120 -74 156 -90 140 -65 156 -75 200 -123 53 -59
146 -151 222 -221 66 -60 168 -253 194 -362 8 -37 28 -97 44 -133 61 -140 61
-460 0 -600 -16 -36 -36 -96 -44 -134 -88 -380 -315 -494 -455 -229 -87 165
-202 323 -291 398 -136 115 -226 179 -321 224 -57 28 -158 81 -224 118 l-120
68 -405 1 c-461 2 -536 -4 -612 -42 -171 -87 -243 91 -125 309 19 34 40 88 46
120 9 39 27 78 56 120 24 34 68 98 98 142 62 91 182 212 242 243 22 11 67 44
100 72 104 89 300 179 411 190 65 6 111 17 160 38 38 16 76 32 84 35 32 12
149 6 201 -9z m-3109 -726 c87 -22 90 -22 156 -5 105 27 234 23 302 -9 30 -14
78 -34 106 -44 28 -10 80 -37 116 -61 36 -24 94 -60 127 -78 43 -24 79 -56
115 -100 29 -37 82 -98 119 -138 90 -98 88 -94 93 -275 l5 -160 -34 -62 c-28
-49 -36 -76 -41 -139 -4 -57 -13 -92 -35 -135 -16 -32 -34 -78 -41 -102 -6
-25 -26 -72 -44 -105 -27 -48 -35 -76 -40 -139 -5 -62 -12 -90 -37 -132 -19
-33 -34 -79 -41 -121 -6 -41 -22 -89 -40 -120 -17 -32 -33 -80 -40 -120 -6
-40 -24 -92 -44 -131 -21 -38 -34 -78 -34 -100 0 -20 -12 -68 -25 -107 -31
-88 -31 -111 0 -185 14 -33 25 -65 25 -71 0 -6 15 -46 34 -88 19 -42 40 -103
46 -136 15 -73 55 -163 103 -234 58 -83 52 -113 -46 -224 -26 -30 -63 -86 -81
-123 -19 -38 -76 -118 -126 -179 -51 -60 -107 -140 -126 -177 -21 -41 -64
-100 -112 -150 -42 -46 -88 -99 -101 -118 -101 -148 -272 -146 -335 4 -7 17
-41 64 -75 105 -34 41 -71 91 -81 110 -10 20 -59 86 -110 146 -51 61 -108 135
-128 165 -20 30 -56 81 -81 114 -48 63 -121 229 -121 274 0 28 24 72 77 142
18 23 35 59 38 79 4 20 20 79 37 131 l32 95 -1 269 -1 268 -36 72 c-35 71 -72
158 -107 251 -10 28 -18 76 -19 107 0 45 -7 70 -35 123 -28 53 -37 81 -42 143
-4 61 -13 90 -39 137 -18 33 -36 78 -39 100 -4 22 -21 64 -37 94 -20 35 -34
80 -40 125 -5 41 -24 103 -43 146 -115 256 44 550 386 715 41 19 92 46 114 60
22 13 58 27 80 30 22 4 67 22 100 40 95 52 120 54 247 23z m2268 -838 c82 -36
81 -36 148 -5 62 29 95 31 146 10 20 -8 67 -22 106 -30 38 -8 95 -28 125 -44
32 -17 80 -33 113 -37 110 -13 296 -157 432 -335 32 -42 72 -88 89 -102 136
-114 90 -239 -66 -178 -26 10 -70 21 -98 25 -27 4 -88 26 -134 48 -106 53
-150 55 -239 9 -44 -22 -87 -35 -143 -42 -330 -41 -697 -410 -719 -724 -6 -86
-11 -108 -38 -156 -40 -69 -40 -89 -2 -156 19 -34 34 -78 40 -123 6 -39 21
-97 35 -130 46 -110 15 -172 -110 -219 -30 -11 -79 -33 -107 -47 -47 -24 -60
-26 -123 -21 -48 4 -83 1 -110 -8 -117 -42 -391 109 -466 256 -17 34 -46 85
-65 112 -19 27 -35 54 -35 61 -2 16 -11 279 -12 356 -1 52 5 79 30 135 17 39
39 100 47 138 9 37 25 86 36 108 12 22 30 77 41 121 11 45 33 106 48 137 15
31 36 88 45 126 77 322 433 661 731 695 44 5 103 18 130 29 28 11 51 20 53 21
2 0 34 -13 72 -30z m-4473 -2 l53 -22 53 22 c63 26 86 27 135 6 20 -9 75 -20
122 -25 88 -9 230 -67 307 -125 18 -14 63 -38 100 -55 87 -39 117 -68 158
-151 18 -37 58 -97 89 -133 44 -52 60 -80 76 -138 12 -40 35 -101 52 -137 26
-53 33 -82 38 -160 6 -88 9 -99 43 -150 32 -48 38 -67 45 -140 6 -52 17 -101
30 -126 12 -23 30 -73 41 -110 11 -38 30 -97 42 -131 l22 -63 -22 -62 c-12
-35 -31 -94 -42 -133 -23 -79 -28 -89 -117 -202 -114 -145 -301 -243 -423
-221 -40 7 -62 6 -100 -6 -71 -24 -96 -20 -190 25 -153 74 -186 113 -175 208
4 31 11 93 16 139 7 69 15 95 51 160 52 93 59 173 21 233 -45 71 -60 106 -71
161 -59 285 -401 611 -679 647 -51 7 -86 18 -120 39 -106 65 -176 67 -273 7
-57 -35 -182 -65 -281 -68 -194 -4 57 382 330 509 41 19 88 45 105 58 77 58
219 116 307 125 47 5 101 16 120 25 48 21 75 20 137 -6z"/>
    </g>
  </g>
  <text x="290" y="132" fill="#f3b026" font-size="76" font-weight="800" font-family="Arial, Helvetica, sans-serif" letter-spacing="2">SKAUTING</text>
  <text x="290" y="206" fill="#f3b026" fill-opacity="0.95" font-size="40" font-weight="600" font-family="Arial, Helvetica, sans-serif" letter-spacing="4">SLOVENSKÝ SKAUTING</text>
</svg>
