<svg xmlns="http://www.w3.org/2000/svg" xmlns:xlink="http://www.w3.org/1999/xlink" x="0px" y="0px" width="192px" height="104.05px" viewBox="0 0 192 104.05" style="enable-background:new 0 0 192 104.05;" preserveAspectRatio="xMidYMid meet" xml:space="preserve">
<path d="M157.518,53.857c3.84-5.43,14.528-25.077,11.608-29.247C164.523,24.158,157.694,47.275,157.518,53.857 M134.857,58.575  c3.84-5.431,14.099-25.924,11.29-29.304C141.543,28.819,135.033,51.993,134.857,58.575z M87.102,66.615  c0.756-2.136,0.985-3.719,0.818-4.801c-2.578,0.287-5.904,2.672-7.072,4.954C82.841,67.205,85.12,67.028,87.102,66.615z   M83.851,73.432c-2.252-0.132-4.552-0.721-6.406-2.045c-0.557,1.07-2.697,4.973-1.902,8.849  C79.499,80.427,82.955,74.923,83.851,73.432z M115.345,57.072c-6.281-0.64-14.166,10.644-11.707,17.476  C110.504,73.589,116.042,63.269,115.345,57.072z M38.337,85.749c2.422-0.004,4.792-0.694,6.84-1.986  c0.203-3.5,1.396-6.804,3.822-10.283c3.355-4.817,6.84-7.269,9.473-7.638c0.607-0.085,0.762,0.008,0.849,0.466  c0.445,2.345-0.487,6.284-3.55,11.799c-4.519,8.136-18.048,15.38-25.936,7.874c-5.627-5.354-4.111-15.073-0.778-23.211  c0.901-2.74,3.194-6.538,3.925-7.793c4.641-7.784,11.381-15.384,18.82-20.418c8.133-5.502,15.053-7.296,19.138-6.452  c1.264,0.261,1.339,0.482,1.186,1.518c-0.499,3.373-4.131,8.218-12.117,13.954c-6.109,4.389-14.423,8.416-22.613,10.643  c-1.941,2.76-3.366,5.387-4.36,8.116c11.37-1.816,23.555-6.698,32.011-12.77c9.031-6.489,13.213-12.476,13.88-16.976  c0.831-5.612-3.211-10.072-8.687-11.205c-5.462-1.127-14.025,0.805-23.371,7.127c-9.637,6.52-18.322,17.191-23.205,27.634  c-4.046,0.173-16.12-0.059-16.783-5.654c-0.257-2.175,0.986-4.683,2.891-6.246c3.084-2.533,8.606-4.117,17.191-3.271  C23.067,25.676-1.046,35.32,0.035,48.623c0.384,4.718,3.531,9.29,8.537,11.54c3.666,1.647,7.905,2.537,12.441,2.786  c-2.663,8.627-2.502,17.116,1.982,23.744c4.312,6.38,11.569,9.965,19.301,9.122c5.431,10.091,21.739,12,22.22-0.461  c-4.941,1.704-11.7,2.669-15.977-1.118c5.495-2.19,10.654-6.436,13.48-11.526c4.071-7.329,4.88-13.134,3.716-16.92  c-0.758-2.464-2.252-4.319-4.267-5.562c-5.481-3.381-13.738,1.111-18.689,8.22C39.205,73.576,37.736,79.559,38.337,85.749z   M153.098,44.803c1.699-7.241,4.367-14.682,7.162-19.863c3.182-5.894,7.06-9.06,10.986-6.94c3.615,1.951,4.851,5.683,4.252,10.453  c-0.502,3.999-2.304,9.166-4.933,14.586c-3.373,6.951-7.804,13.938-12.798,19.868c-0.51,2.236,0.848,3.028,1.708,3.201  c2.883,0.575,9.493-5.245,11.35-7.215c3.884-4.118,7.51-9.559,10.341-15.375c3.192-6.56,5.516-14.9,3.768-22.167  c-4.101-17.074-25.653-16.175-38.718-11.685C134.234,13.782,128,20.24,119.353,31.183c-11.951-17.487,38.375-44.878,63.48-23.17  c12.143,10.497,10.735,26.527,4.344,39.66c-5.879,12.076-16.254,22.35-24.866,24.418c-4.514,1.084-7.503-0.586-9.28-4.127  c-4.655,4.429-9.607,7.9-14.095,8.343c-3.692,0.364-6.026-0.472-7.578-3.817c-3.137,3.452-6.392,5.856-8.7,6.487  c-3.037,0.837-6.155-0.506-7.72-3.236c-2.57,3.073-5.332,4.72-7.757,5.151c-4.168,0.736-7.941-1.775-9.465-5.623  c-0.713-1.801-0.892-4.193-0.529-6.111c-1.316,1.488-2.993,2.484-4.748,3.218c-0.485,1.21-1.093,2.506-1.819,3.875  c-3.013,5.689-9.655,13.346-16.786,9.483c-7.716-4.177-4.903-14.296-1.356-20.354c3.057-5.221,10.263-12.382,16.96-9.324  c3.059,1.394,4.729,4.24,4.9,7.515c3.124-2.063,6.501-5.141,9.025-7.44c2.534-2.311,4.966-4.607,8.476-5.348  c2.042-0.432,4.081-0.158,5.876,0.913c0.47-1.131,0.907-2.02,1.261-2.559c5.266,2.347,5.658,5.888,4.214,9.302  c-1.529,3.606-3.45,9.557-3.225,13.491c2.738,1.072,5.916-2.006,9.038-5.987c-0.83-8.658,0.788-16.336,3.483-24.592  c1.874-5.757,4.509-13.1,8.923-17.425c4.186-4.096,9.646-1.363,11.035,3.702c1.846,6.733-4.132,18.907-7.329,24.831  c-2.923,5.419-6.001,10.301-9.49,14.842c0.588,8.945,13.838-3.529,15.772-5.77C150.614,57.036,152.067,49.188,153.098,44.803z"></path>
</svg>